<?xml version="1.0" encoding="utf-8"?>
<!-- Generator: Adobe Illustrator 24.0.3, SVG Export Plug-In . SVG Version: 6.00 Build 0)  -->
<svg version="1.1" id="Layer_1" xmlns="http://www.w3.org/2000/svg" xmlns:xlink="http://www.w3.org/1999/xlink" x="0px" y="0px"
	 viewBox="0 0 1030 1030" style="enable-background:new 0 0 1030 1030;" xml:space="preserve">
<style type="text/css">
	.st0{fill:#FC5018;}
	.st1{fill:#0B0B01;}
	.st2{fill:#0C0C02;}
</style>
<title>Artboard</title>
<desc>Created with Sketch.</desc>
<g>
	<path class="st0" d="M944.4,543.8c0-2.6,0-5.2,0-7.8c0,0-0.5-2.4-0.5-2.4s-60.6-86.9-65-93c-5.7,0-11.4,0-17.1,0
		c0,0-18.2-0.2-27.3-0.3c-0.3-0.1-0.6-0.2-0.8-0.4h-7.3v-9.1h43c1.8,0,3.2-1.4,3.2-3.2V395c0-1.8-1.4-3.2-3.2-3.2h-43v-8.7h43
		c1.8,0,3.2-1.4,3.2-3.2v-32.6c0-1.8-1.4-3.2-3.2-3.2h-43v-8h43c1.8,0,3.2-1.4,3.2-3.2V300c0-1.8-1.4-3.2-3.2-3.2h-43v-9.4h43
		c1.8,0,3.2-1.4,3.2-3.2v-32.6c0-1.8-1.4-3.2-3.2-3.2h-43v-8.4h43c1.8,0,3.2-1.4,3.2-3.2v-32.6c0-1.8-1.4-3.2-3.2-3.2H159.9
		c-1.8,0-3.2,1.4-3.2,3.2v32.6c0,1.8,1.4,3.2,3.2,3.2h41.8v8.4h-41.8c-1.8,0-3.2,1.4-3.2,3.2v32.6c0,1.8,1.4,3.2,3.2,3.2h41.8v9.4
		h-41.8c-1.8,0-3.2,1.4-3.2,3.2v32.6c0,1.8,1.4,3.2,3.2,3.2h41.8v8h-41.8c-1.8,0-3.2,1.4-3.2,3.2v32.6c0,1.8,1.4,3.2,3.2,3.2h41.8
		v8.7h-41.8c-1.8,0-3.2,1.4-3.2,3.2v32.6c0,1.8,1.4,3.2,3.2,3.2h41.8v9.3c-11.7,0-23.4-0.1-35.1,0.1c-2.3,0-5.3-1.3-6.8,2
		c-1.3,1.5-4.4,5.1-8.4,9.5C142,462.3,86.3,534,86.3,534c-1,2.7-0.6,17.6-0.6,17.6s1.3,1.1,3.5,1c6.9-0.1,13.8,0,20.6,0
		c10,0,8.7-1,8.7,9c0,63.5,0,127,0,190.5c0,2.3,0.1,4.6,0,6.9c-0.3,3.5,1.3,4.5,4.6,4.5c8.5-0.1,17-0.1,25.6-0.1
		c1.3,0,2.6-0.2,2.6-1.9h0c1.6-3.6,3-7.2,4.8-10.7c4.5-8.6,5.9-17.5,5.9-27.3c-0.3-45.6-0.1-91.2-0.1-136.8c0-11.2,0-11.1,11.6-10.2
		c3,0.2,3.9,1.4,3.9,4.2c-0.1,7.9,0,15.7,0,23.6c0,17.7,0.1,35.4,0,53.1c0,3.5,0.7,5.5,4.9,5.3c6.2-0.3,12.5-0.1,18.7-0.1
		c2.4,0,5,0.1,6-2.4c4.1-10.1,10.4-19.4,10-31.2c-0.5-15.4-0.1-30.8-0.1-46.2c0-6-0.4-6.3,6.7-6.3c68,0.1,135.9,0.1,203.9,0.2
		c36.3-0.2,72.6-0.3,108.9-0.5c13.1,0.2,26.3,0.3,39.4,0.5c76.2,0.7,152.5,1.4,228.7,2c0,6.5,0,12.9,0.1,19.4
		c-0.1,9.8-0.4,29.5-0.4,29.5l7.9,30.8c0,0,2.7,4.3,5.7,4.3c6.6,0,13.1,0,19.7,0c3.2,0,4.7-1.7,4.6-5c-0.1-2,0-3.9,0-5.9
		c0-23,0-45.9,0.1-68.9c0-6.2,0.1-6.2,5.6-6.3c6.3-0.1,6.3-0.1,6.5,6.4c0,1.6,0,3.3,0,4.9c0,46.9,0,93.9,0.1,140.8
		c0,3.2-0.6,6.4,0.9,9.7c2.9,6.5,5.8,13.1,8.2,19.8c1.5,4.2,4,5.3,8.2,5.2c6.6-0.3,13.1,0,19.7-0.1c6-0.1,6-0.1,6.2-5.7
		c0-1.3,0-2.6,0-3.9c0-62,0-124,0-186.1c0-2.9-0.2-5.9-0.3-8.8v0c0.2-1.9,0.3-3.8,0.5-5.8c12.7-0.1,25.4-0.2,38.1-0.3
		C945.4,552.6,944.3,553.6,944.4,543.8z M232.8,239.9h562.3v8.4H232.8V239.9z M232.8,287.4h562.3v9.4H232.8V287.4z M232.8,335.9
		h562.3v8H232.8V335.9z M232.8,383.1h562.3v8.7H232.8V383.1z M276.2,533c0.2-0.1,0.4-0.2,0.6-0.3c0,0.1,0.1,0.2,0.2,0.3
		C276.7,533,276.4,533,276.2,533z M489.7,440c-0.1,0.5-0.1,1-0.1,1.4c-0.2-0.3-0.3-0.6-0.5-0.8c-0.2-0.2-0.5-0.4-0.7-0.6H232.8v-9.1
		h562.3v9.1H489.7z"/>
	<path class="st0" d="M665.5,529.1c-0.3-0.1-0.7,0-1-0.1c-10.5-3.1-21.4-1.7-32.1-1.9c-4.8-0.1-10.6-1.9-14.3,0.9
		c-4,3.1-3.6,9.4-4.6,14.4c-0.7,3.4-3.9,7.1-1.9,10.2c2.7,4.1,7-0.1,10.6,0c9.1,0.3,18.2,0.8,27.2,1.9c6.3,0.4,12.3-1,18-3.4
		c6-2.6,10-8.7,9-13.7C675.2,531.7,670.2,530.5,665.5,529.1z"/>
	<path class="st1" d="M549.2,564.2c4.1-6.2,5.9-12.3,6.8-16.3c1-10.1-0.9-17.7-5.6-22.7c-2.1-2.2-5-4.1-10.1-5.7
		c-12.1-3.9-23.3-2.1-33-0.1c-9.2,1.8-10.9,1.2-46.7,12.8c-9.8,3.2-19.2,7.5-28.8,11.1c-2.5,1-5.9,1.4-5.7,5.4
		c0.5,9.3,1,18.6,1.5,27.9c2.7,33.2,4.9,66.4,10.5,99.5c7.6-3.8,14.3-7.7,21.5-10.6c3.6-1.5,4.2-3.3,4-6.6
		c-0.7-8.8-1.4-17.6-1.9-26.4c-0.3-6.1-0.3-12.2-0.4-18.3c5.4-3.2,11.4-4.8,17.2-7.1c7.3-2.9,14.6-5.8,22.4-7
		c7.7-1.2,11.2,1.6,12,9.2c0.5,4.9,0.1,9.8,0.2,14.7c0.1,5.2-0.3,10.4,1.4,15.6c1,3,2.1,4.3,5.5,3.3c7.5-2.2,15.2-3.9,22.8-5.9
		c4-1.1,4.5-2,1.6-5.8c-2.1-2.7-2.2-5.4-2.1-8.3c0.2-7.5,0.7-15.1,0.7-22.6c0.1-12.3-1.9-15-13.5-19.4
		C533.4,579.2,542.4,574.4,549.2,564.2z M520.2,559.4c-2.8,7.9-8.4,12.9-10.2,14.1c-3.7,2.4-9.1,4.3-11.9,5.4
		c-1.8,0.7-3.2,1.1-3.6,1.2c-11.3,4-34.3,11.8-34.3,11.8s-0.9-10.2-0.5-15.3c-0.1-21.9-4-17.2,17.2-24.5c8.8-3,17.7-5.7,26.7-8.3
		c3.7-1.1,7.7-1.6,11.4,0.4C519.9,546.9,522.4,553.3,520.2,559.4z"/>
	<path class="st1" d="M418,680.4c-20.1-29.9-41.5-58.8-63.6-87.3c-2.5-3.2-4.3-2-6.4-0.4c-8.3,5.9-16.3,12.1-24.8,17.7
		c-4.8,3.2-6.9,7.4-7.5,12.9c-3.3,30.3-5.7,60.6-6,98.3c-0.3,11.4,1.8,30,2.3,48.6c0,1-0.1,2,0.1,2.9c0.5,2.1,1.8,2.7,3.4,1
		c6.5-6.9,13-13.9,19.5-20.8c1.7-1.9,1.4-3.9,1.2-6.3c-0.6-7.2-0.3-14.4-0.8-21.6c-0.2-3.3,0.9-5.6,3.3-7.7
		c6.2-5.3,12.3-10.9,18.6-16c6.3-5.2,13-10,19.4-15.1c2.3-1.8,3.8-1.6,5.5,0.9c2.7,4.1,5.7,8,8.4,12.1c1.9,2.9,3.5,4.1,7,1.5
		c6-4.5,12.6-8.2,18.9-12.4C421.3,685.6,421.4,685.4,418,680.4z M364,670.4c-7.9,6.3-15.9,12.5-23.9,18.9c-1.3,1-2.4,2.2-4.6,2.6
		c0.6-19.5,2.2-38.8,4.4-60.3c9.5,12.5,17.8,23.4,26,34.3C367.9,668.3,365.3,669.3,364,670.4z"/>
	<polygon class="st1" points="492,763.7 475.9,763.7 463.2,783.8 450.4,763.7 434.3,763.7 454.9,796.9 434.3,829.2 451.5,829.2 
		463.2,810.3 474.8,829.2 492,829.2 471.5,796.9 	"/>
	<polygon class="st1" points="555.9,763.1 539.8,763.1 527.1,783.1 514.3,763.1 498.2,763.1 518.7,796.2 498.2,828.5 515.4,828.5 
		527.1,809.7 538.7,828.5 555.9,828.5 535.4,796.2 	"/>
	<polygon class="st2" points="579.8,817.8 579.8,763.1 565.6,763.1 565.6,829.2 565.7,829.2 579.8,829.2 613.9,829.2 613.9,817.8 	
		"/>
	<path class="st1" d="M707.9,525.2c-2-3-4.1-4.8-5.7-6.1c-3.3-2.7-7-4.7-11.2-6.2c-10.5-3.8-21.4-5.2-32.3-5.5
		c-20.3-0.6-40.6-0.2-61-0.2c-1.3,0-2.8,0-5.9,0.2c-2.4,0.1-2.8,0.5-3,0.7c-0.3,0.4-0.4,0.7-0.6,2.2c-0.2,1.2-0.4,2.1-0.5,2.7
		c-4.3,20.9-8.4,42.6-12.1,65.3c-3,18.4-5.6,36.4-7.7,53.8c8.1,0.2,14.8,0.2,19.7,0.2c28.2-0.3,34.1-1.7,51.5-3.2
		c9.4-0.8,14.5-1.1,22.2-3.7c19.6-6.5,28.1-21.7,28.1-21.7c2.1-3.7,8.8-15.7,4.2-27.5c-1.3-3.4-3.3-5.9-4.7-7.4
		c4.6-3.2,17.7-12.7,21.7-22.4c0.7-1.6,1-3,1.1-3.3C713.6,534.3,709.1,526.9,707.9,525.2z M660.4,596.5c-0.4,0.7-1.7,3-4.2,5.1
		c-5.6,4.8-12.6,5.3-16.8,5.6c-1.2,0.1-1.4,0-3.5,0.1c-10.9,0.3-21.8,0.1-32.6,0.5c-0.6,0-2.3,0.1-3.1-1c-0.4-0.5-0.5-1.2-0.3-2.3
		c1.7-7.6,3.6-15.2,5.1-22.9c0.6-3.3,2.2-4.2,5.3-4.1c13.4,0.2,26.9,0.1,40.3,0.2C662.6,577.8,666.3,586.5,660.4,596.5z
		 M671.8,541.9c-3.9,13.7-18.4,12.3-18.4,12.3h-42.9c-1.4,0-2.5-1.3-2.2-2.7l4.8-22.7c0.2-1.1,1.2-1.8,2.3-1.8l42.7,1.1
		C658.1,528,675.6,528.2,671.8,541.9z"/>
</g>
</svg>
