<svg viewBox="0 0 447 240" xmlns="http://www.w3.org/2000/svg"><path d="m412.979 139.178a1.854 1.854 0 1 1 3.708 0 1.854 1.854 0 0 1 -3.708 0m-3.243-1.93-4.775 1.296a9.62 9.62 0 0 0 .008 1.27l4.767 1.294a.625.625 0 0 1 .41.852l-1.963 4.54c.315.284.65.544.997.786l3.984-2.92a.625.625 0 0 1 .921.21l2.322 4.36c.209-.034.418-.063.628-.11.209-.048.41-.113.612-.174l.201-4.934a.626.626 0 0 1 .739-.59l4.856.903c.208-.369.397-.749.557-1.143l-3.738-3.237a.626.626 0 0 1 0-.946l3.734-3.234a10.048 10.048 0 0 0 -.544-1.147l-4.865.904a.625.625 0 0 1 -.739-.59l-.201-4.94a9.716 9.716 0 0 0 -1.236-.285l-2.326 4.367a.625.625 0 0 1 -.921.211l-3.99-2.926a9.881 9.881 0 0 0 -.991.792l1.963 4.54a.624.624 0 0 1 -.41.851m-354.548 3.144c-5.9 0-10.874-1.944-14.836-5.917-3.961-3.972-5.9-8.959-5.9-14.961 0-6.001 1.939-10.988 5.9-14.96 3.962-3.974 8.936-6.002 14.836-6.002 6.49 0 11.885 2.367 16.099 7.185l7.164-6.171c-6.152-7.016-13.907-10.566-23.263-10.566-8.683 0-16.1 2.874-22.169 8.706-5.985 5.832-9.019 13.102-9.019 21.808s3.034 15.976 9.019 21.808c6.069 5.748 13.486 8.623 22.169 8.623 9.188 0 17.617-3.974 23.348-10.736l-7.081-6.171c-4.13 4.902-9.608 7.354-16.267 7.354m76.217-5.832c-3.961 3.972-8.851 6.001-14.667 6.001-5.815 0-10.79-2.029-14.75-6.001-3.961-3.973-5.9-8.959-5.9-14.962 0-5.916 1.939-10.903 5.9-14.96 3.96-4.058 8.935-6.086 14.75-6.086 5.816 0 10.706 2.028 14.667 6.086 3.962 4.057 5.985 9.044 5.985 14.96 0 5.918-2.023 10.905-5.985 14.962m-14.667-45.56c-8.681 0-16.015 2.958-22 8.875-5.984 5.832-9.02 13.102-9.02 21.723 0 8.622 3.036 15.892 9.02 21.724 5.985 5.832 13.319 8.79 22 8.79 8.682 0 16.1-2.958 22.085-8.79 5.984-5.832 9.019-13.102 9.019-21.724 0-8.621-3.035-15.891-9.104-21.723-5.984-5.917-13.318-8.875-22-8.875m93.827 41.701-13.001-40.687h-9.074l-13.001 40.687-13.91-40.687h-10.847l19.999 58.916h9.387l12.895-40.526 12.816 40.526h9.471l19.998-58.916h-10.823zm56.341 8.677h-11.8v-16.737h11.715c5.395 0 9.273 3.551 9.273 8.284 0 4.818-3.878 8.453-9.188 8.453zm-11.8-39.812h9.355c4.383 0 7.502 2.958 7.502 6.931 0 4.311-3.119 7.27-7.586 7.27h-9.272v-14.2zm19.638 17.327c4.721-1.775 7.502-6.169 7.502-11.833 0-4.31-1.602-7.946-4.804-10.735-3.119-2.874-6.996-4.31-11.632-4.31h-21.24v58.914h24.106c5.141 0 9.356-1.606 12.728-4.902 3.456-3.296 5.141-7.523 5.141-12.51 0-7.523-4.299-13.272-11.8-14.624zm66.457 17.667c-3.962 3.972-8.85 6.001-14.667 6.001-5.815 0-10.789-2.029-14.75-6.001-3.962-3.973-5.9-8.959-5.9-14.962 0-5.916 1.938-10.903 5.9-14.96 3.961-4.058 8.935-6.086 14.75-6.086 5.816 0 10.705 2.028 14.667 6.086 3.961 4.057 5.985 9.044 5.985 14.96 0 5.918-2.024 10.905-5.985 14.962m-14.667-45.56c-8.682 0-16.015 2.958-21.999 8.875-5.985 5.832-9.02 13.102-9.02 21.723 0 8.622 3.035 15.892 9.02 21.724 5.984 5.832 13.317 8.79 22 8.79 8.681 0 16.1-2.958 22.084-8.79s9.02-13.102 9.02-21.724c0-8.621-3.036-15.891-9.105-21.723-5.984-5.917-13.318-8.875-22-8.875m76.747 1.021-16.853 29.045-16.92-29.045h-11.366l22.504 38.384-11.919 20.53h11.567l11.419-19.482 23.116-39.432z" fill-rule="evenodd"/></svg>