<svg viewBox="0 0 447 240" xmlns="http://www.w3.org/2000/svg"><g fill-rule="evenodd"><path d="m293.36 57.996-28.663 24.327c-12.832-14.487-28.94-21.593-48.323-21.593-16.925 0-31.122 5.74-42.86 17.22-11.739 11.481-17.472 25.696-17.472 42.916 0 17.223 5.733 31.436 17.2 42.917 11.74 11.208 25.934 16.948 43.132 16.948 19.657 0 35.763-7.381 48.593-21.868l28.668 24.329c-19.385 22.687-46.956 35.808-77.26 35.808-28.665 0-52.689-9.293-72.618-27.882-19.93-18.862-29.756-42.097-29.756-70.252s9.826-51.389 29.756-70.25 43.953-28.156 72.617-28.156c30.305 0 57.606 13.395 76.987 35.536"/><path d="m277.111 113.306a2.5 2.5 0 0 0 1.637-3.404l-7.83-18.138a39.073 39.073 0 0 1 3.952-3.163l15.912 11.686a2.491 2.491 0 0 0 3.677-.84l9.274-17.447c1.675.272 3.32.651 4.932 1.131l.8 19.747a2.496 2.496 0 0 0 2.948 2.356l19.4-3.614a39.12 39.12 0 0 1 2.17 4.585l-14.892 12.92a2.504 2.504 0 0 0 0 3.78l14.909 12.935a39.688 39.688 0 0 1 -2.22 4.565l-19.367-3.609a2.497 2.497 0 0 0 -2.948 2.355l-.8 19.718c-.81.24-1.609.5-2.445.69-.835.19-1.668.306-2.504.441l-9.257-17.417a2.49 2.49 0 0 0 -3.676-.84l-15.887 11.668a39.483 39.483 0 0 1 -3.977-3.147l7.83-18.136a2.5 2.5 0 0 0 -1.638-3.404l-19.013-5.168c-.11-1.704-.137-3.399-.03-5.075zm12.935 7.709c0 4.09 3.31 7.405 7.394 7.405 4.081 0 7.392-3.316 7.392-7.405 0-4.091-3.31-7.406-7.392-7.406-4.084 0-7.394 3.315-7.394 7.406z"/></g></svg>